<?xml version="1.0" encoding="UTF-8" standalone="no"?>
<!DOCTYPE svg PUBLIC "-//W3C//DTD SVG 1.1//EN" "http://www.w3.org/Graphics/SVG/1.1/DTD/svg11.dtd">
<svg width="100%" height="100%" viewBox="0 0 225 103" version="1.1" xmlns="http://www.w3.org/2000/svg" xmlns:xlink="http://www.w3.org/1999/xlink" xml:space="preserve" xmlns:serif="http://www.serif.com/" style="fill-rule:evenodd;clip-rule:evenodd;stroke-linejoin:round;stroke-miterlimit:2;">
    <g id="Layer-1" serif:id="Layer 1">
        <g transform="matrix(1,0,0,1,0,-2.8096)">
            <path d="M26.122,65.62L26.122,67.688C26.337,67.683 26.553,67.683 26.773,67.683C30.686,67.683 34.4,68.384 37.738,69.649L37.738,52.989C37.738,49.886 38.909,48.202 40.573,47.075C42.182,48.217 43.436,49.924 43.436,52.989L43.4,72.562C44.809,73.516 46.097,74.586 47.226,75.75L47.256,52.905C47.256,47.694 44.488,44.802 41.454,43.014C41.161,42.866 40.865,42.676 40.588,42.584C40.327,42.69 40.04,42.835 39.723,43.014C36.783,44.69 33.921,47.708 33.921,52.905L33.913,65.62L29.948,65.62L29.932,53.169C29.932,42.856 34.45,37.41 40.505,33.971C46.177,37.41 51.076,42.859 51.076,53.169L51.091,65.62L54.916,65.62L54.902,52.938C54.902,40.693 48.523,33.996 41.19,29.667C41.19,29.667 40.616,29.323 40.505,29.299C40.393,29.323 39.819,29.667 39.819,29.667C32.769,33.66 26.105,40.693 26.105,52.938L26.122,65.62Z" style="fill:white;fill-rule:nonzero;"/>
        </g>
        <g transform="matrix(1,0,0,1,0,-19.6102)">
            <path d="M70.747,58.537C70.718,58.923 70.704,59.329 70.704,59.756L70.704,61.95C70.704,62.768 70.724,63.217 70.765,63.301C70.806,63.384 70.953,63.427 71.205,63.427L71.493,63.427L71.493,63.665C71.037,63.647 70.651,63.637 70.334,63.637C70.014,63.637 69.631,63.647 69.183,63.665L69.183,63.427L69.506,63.427C69.675,63.427 69.785,63.404 69.837,63.359C69.889,63.314 69.92,63.226 69.933,63.095C69.958,62.795 69.972,62.406 69.972,61.932L69.972,59.732C69.972,59.297 69.962,58.901 69.945,58.537L69.552,58.537C68.918,58.537 68.568,58.553 68.504,58.581C68.44,58.611 68.398,58.725 68.377,58.925L68.324,59.438L68.084,59.438L68.091,58.981C68.091,58.798 68.075,58.531 68.042,58.185C69.433,58.204 70.252,58.214 70.496,58.214L72.634,58.185C72.585,58.619 72.557,59.037 72.55,59.438L72.31,59.438L72.272,58.936C72.256,58.763 72.234,58.66 72.205,58.628C72.177,58.596 72.114,58.576 72.016,58.569C71.732,58.548 71.41,58.537 71.049,58.537L70.747,58.537Z" style="fill:white;fill-rule:nonzero;"/>
        </g>
        <g transform="matrix(1,0,0,1,0,-19.6522)">
            <path d="M74.216,61.539L76.166,61.539L75.192,59.205L74.216,61.539ZM76.303,61.849L74.075,61.849L73.81,62.482C73.638,62.894 73.552,63.145 73.552,63.237C73.552,63.296 73.568,63.339 73.6,63.365C73.632,63.39 73.714,63.41 73.844,63.427L74.214,63.469L74.214,63.708C73.968,63.689 73.691,63.68 73.384,63.68C73.015,63.68 72.69,63.689 72.411,63.708L72.411,63.469L72.526,63.465C72.705,63.459 72.821,63.442 72.873,63.409C72.926,63.377 72.982,63.298 73.041,63.172C73.222,62.802 73.408,62.402 73.597,61.973L74.653,59.573C74.934,58.936 75.126,58.474 75.229,58.185L75.497,58.185L77.438,62.721C77.569,63.028 77.656,63.215 77.699,63.277C77.743,63.341 77.792,63.387 77.849,63.414C77.905,63.44 78.033,63.458 78.229,63.469L78.229,63.708C77.9,63.689 77.587,63.68 77.289,63.68C77.01,63.68 76.636,63.689 76.168,63.708L76.168,63.469L76.549,63.446C76.685,63.435 76.765,63.421 76.791,63.404C76.828,63.375 76.848,63.339 76.848,63.296C76.848,63.249 76.81,63.129 76.734,62.934L76.303,61.849Z" style="fill:white;fill-rule:nonzero;"/>
        </g>
        <g transform="matrix(1,0,0,1,0,-19.607)">
            <path d="M80.216,63.278C80.468,63.29 80.713,63.296 80.952,63.296C81.435,63.296 81.813,63.285 82.086,63.258C82.276,63.237 82.472,63.2 82.676,63.146L82.907,62.24L83.147,62.24C83.08,62.728 83.029,63.183 82.992,63.606C82.76,63.645 82.445,63.665 82.045,63.665L80.212,63.634C79.966,63.634 79.581,63.644 79.061,63.662L79.061,63.466C79.267,63.376 79.39,63.279 79.426,63.177C79.465,63.074 79.483,62.668 79.483,61.957L79.483,59.841C79.483,59.073 79.465,58.644 79.427,58.556C79.391,58.466 79.285,58.422 79.114,58.422L78.695,58.422L78.695,58.182C79.307,58.201 79.714,58.21 79.915,58.21C80.183,58.21 80.547,58.201 81.005,58.182L81.005,58.422L80.528,58.422C80.392,58.422 80.306,58.461 80.27,58.54C80.234,58.618 80.216,58.942 80.216,59.514L80.216,61.965L80.228,63.05L80.216,63.278Z" style="fill:white;fill-rule:nonzero;"/>
        </g>
        <g transform="matrix(1,0,0,1,0,-19.607)">
            <path d="M85.113,63.278C85.365,63.29 85.611,63.296 85.849,63.296C86.333,63.296 86.71,63.285 86.984,63.258C87.173,63.237 87.37,63.2 87.573,63.146L87.804,62.24L88.044,62.24C87.977,62.728 87.925,63.183 87.889,63.606C87.658,63.645 87.341,63.665 86.942,63.665L85.109,63.634C84.863,63.634 84.479,63.644 83.958,63.662L83.958,63.466C84.165,63.376 84.287,63.279 84.324,63.177C84.362,63.074 84.38,62.668 84.38,61.957L84.38,59.841C84.38,59.073 84.362,58.644 84.325,58.556C84.288,58.466 84.183,58.422 84.012,58.422L83.592,58.422L83.592,58.182C84.204,58.201 84.612,58.21 84.813,58.21C85.08,58.21 85.444,58.201 85.902,58.182L85.902,58.422L85.424,58.422C85.29,58.422 85.203,58.461 85.167,58.54C85.131,58.618 85.113,58.942 85.113,59.514L85.113,61.965L85.125,63.05L85.113,63.278Z" style="fill:white;fill-rule:nonzero;"/>
        </g>
        <g transform="matrix(1,0,0,1,0,-19.61)">
            <path d="M88.597,63.427L88.84,63.427C89.081,63.427 89.225,63.369 89.272,63.253C89.32,63.138 89.344,62.583 89.344,61.591L89.344,60.283C89.344,59.256 89.323,58.689 89.282,58.583C89.241,58.478 89.117,58.425 88.911,58.425L88.597,58.425L88.597,58.185C89.027,58.205 89.452,58.214 89.872,58.214C90.22,58.214 90.538,58.205 90.823,58.185L90.823,58.425L90.524,58.425C90.34,58.425 90.223,58.446 90.177,58.49C90.131,58.534 90.103,58.646 90.096,58.822C90.083,59.097 90.076,59.587 90.076,60.292L90.076,61.621C90.076,62.621 90.098,63.173 90.142,63.274C90.187,63.375 90.327,63.427 90.566,63.427L90.823,63.427L90.823,63.666C90.504,63.647 90.157,63.638 89.781,63.638C89.344,63.638 88.95,63.647 88.597,63.666L88.597,63.427Z" style="fill:white;fill-rule:nonzero;"/>
        </g>
        <g transform="matrix(1,0,0,1,0,-19.5118)">
            <path d="M92.929,58.948L92.929,61.616C92.929,62.224 92.94,62.648 92.964,62.887C92.982,63.071 93.013,63.182 93.056,63.221C93.098,63.262 93.222,63.29 93.427,63.308L93.676,63.328L93.676,63.567C93.395,63.548 93.14,63.538 92.913,63.538C92.756,63.538 92.395,63.548 91.831,63.567L91.831,63.328L92.109,63.328C92.277,63.328 92.386,63.304 92.438,63.258C92.489,63.212 92.521,63.12 92.535,62.985C92.563,62.702 92.577,62.317 92.577,61.831L92.577,59.915C92.577,59.555 92.573,59.199 92.565,58.846C92.561,58.698 92.54,58.595 92.505,58.54C92.471,58.485 92.42,58.435 92.353,58.391C92.286,58.347 92.193,58.326 92.072,58.326L91.834,58.326L91.834,58.086C92.159,58.105 92.408,58.115 92.58,58.115C92.764,58.115 92.967,58.105 93.187,58.086C93.441,58.396 93.679,58.7 93.904,58.994C94.128,59.288 94.361,59.583 94.602,59.881L95.917,61.498C96.391,62.078 96.734,62.481 96.944,62.707L96.944,60.234C96.944,59.199 96.925,58.632 96.888,58.536C96.851,58.44 96.702,58.379 96.444,58.353L96.155,58.326L96.155,58.086C96.569,58.105 96.89,58.115 97.118,58.115C97.357,58.115 97.665,58.105 98.043,58.086L98.043,58.326L97.745,58.326C97.505,58.326 97.366,58.406 97.331,58.565C97.308,58.671 97.296,59.234 97.296,60.252L97.296,61.99C97.296,62.458 97.317,63.017 97.358,63.665C97.01,63.612 96.808,63.573 96.752,63.548C96.695,63.524 96.641,63.482 96.591,63.426C96.306,63.11 96.007,62.76 95.693,62.374L92.929,58.948Z" style="fill:white;fill-rule:nonzero;"/>
        </g>
        <g transform="matrix(1,0,0,1,0,-19.5118)">
            <path d="M99.722,58.948L99.722,61.616C99.722,62.224 99.734,62.648 99.757,62.887C99.775,63.071 99.806,63.182 99.849,63.221C99.891,63.262 100.015,63.29 100.22,63.308L100.469,63.328L100.469,63.567C100.188,63.548 99.933,63.538 99.707,63.538C99.549,63.538 99.188,63.548 98.623,63.567L98.623,63.328L98.902,63.328C99.07,63.328 99.179,63.304 99.23,63.258C99.282,63.212 99.314,63.12 99.327,62.985C99.356,62.702 99.369,62.317 99.369,61.831L99.369,59.915C99.369,59.555 99.366,59.199 99.358,58.846C99.353,58.698 99.334,58.595 99.298,58.54C99.264,58.485 99.213,58.435 99.146,58.391C99.08,58.347 98.985,58.326 98.865,58.326L98.627,58.326L98.627,58.086C98.953,58.105 99.202,58.115 99.374,58.115C99.558,58.115 99.76,58.105 99.98,58.086C100.233,58.396 100.473,58.7 100.697,58.994C100.922,59.288 101.154,59.583 101.395,59.881L102.71,61.498C103.185,62.078 103.526,62.481 103.737,62.707L103.737,60.234C103.737,59.199 103.719,58.632 103.681,58.536C103.644,58.44 103.496,58.379 103.237,58.353L102.948,58.326L102.948,58.086C103.361,58.105 103.682,58.115 103.911,58.115C104.149,58.115 104.458,58.105 104.835,58.086L104.835,58.326L104.538,58.326C104.298,58.326 104.16,58.406 104.124,58.565C104.1,58.671 104.089,59.234 104.089,60.252L104.089,61.99C104.089,62.458 104.11,63.017 104.15,63.665C103.803,63.612 103.6,63.573 103.544,63.548C103.487,63.524 103.434,63.482 103.383,63.426C103.099,63.11 102.8,62.76 102.487,62.374L99.722,58.948Z" style="fill:white;fill-rule:nonzero;"/>
        </g>
        <g transform="matrix(1,0,0,1,0,-19.6522)">
            <path d="M106.748,61.539L108.698,61.539L107.724,59.205L106.748,61.539ZM108.835,61.849L106.607,61.849L106.341,62.482C106.169,62.894 106.084,63.145 106.084,63.237C106.084,63.296 106.1,63.339 106.132,63.365C106.164,63.39 106.245,63.41 106.376,63.427L106.747,63.469L106.747,63.708C106.499,63.689 106.223,63.68 105.915,63.68C105.546,63.68 105.222,63.689 104.943,63.708L104.943,63.469L105.057,63.465C105.237,63.459 105.352,63.442 105.405,63.409C105.458,63.377 105.514,63.298 105.573,63.172C105.754,62.802 105.94,62.402 106.129,61.973L107.185,59.573C107.466,58.936 107.657,58.474 107.761,58.185L108.029,58.185L109.971,62.721C110.101,63.028 110.187,63.215 110.231,63.277C110.274,63.341 110.325,63.387 110.381,63.414C110.437,63.44 110.564,63.458 110.761,63.469L110.761,63.708C110.432,63.689 110.119,63.68 109.82,63.68C109.542,63.68 109.167,63.689 108.699,63.708L108.699,63.469L109.081,63.446C109.217,63.435 109.297,63.421 109.323,63.404C109.361,63.375 109.38,63.339 109.38,63.296C109.38,63.249 109.341,63.129 109.265,62.934L108.835,61.849Z" style="fill:white;fill-rule:nonzero;"/>
        </g>
        <g transform="matrix(1,0,0,1,0,-20.7912)">
            <path d="M118.281,58.114C118.396,58.114 118.496,58.155 118.577,58.237C118.66,58.319 118.702,58.418 118.702,58.533C118.702,58.652 118.66,58.753 118.577,58.836C118.496,58.917 118.396,58.959 118.281,58.959C118.165,58.959 118.065,58.917 117.982,58.836C117.898,58.753 117.857,58.652 117.857,58.533C117.857,58.418 117.898,58.319 117.98,58.237C118.062,58.155 118.162,58.114 118.281,58.114M116.619,58.114C116.734,58.114 116.833,58.155 116.915,58.237C116.999,58.319 117.039,58.418 117.039,58.533C117.039,58.652 116.999,58.753 116.915,58.836C116.833,58.917 116.734,58.959 116.619,58.959C116.5,58.959 116.4,58.917 116.318,58.836C116.235,58.753 116.195,58.652 116.195,58.533C116.195,58.418 116.235,58.319 116.318,58.237C116.4,58.155 116.5,58.114 116.619,58.114M114.363,59.607L114.363,59.366C114.891,59.386 115.276,59.395 115.516,59.395C115.769,59.395 116.141,59.386 116.631,59.366L116.631,59.607L116.35,59.607C116.109,59.607 115.964,59.654 115.915,59.745C115.866,59.837 115.843,60.256 115.843,61L115.843,62.507C115.843,63.057 115.872,63.44 115.933,63.656C115.993,63.871 116.149,64.053 116.402,64.202C116.654,64.351 116.992,64.425 117.414,64.425C117.85,64.425 118.216,64.345 118.515,64.186C118.721,64.076 118.871,63.905 118.968,63.673C119.062,63.442 119.11,63.001 119.11,62.352L119.11,60.903C119.11,60.231 119.079,59.847 119.019,59.752C118.959,59.655 118.794,59.607 118.521,59.607L118.322,59.607L118.322,59.366C118.855,59.386 119.192,59.395 119.337,59.395C119.571,59.395 119.862,59.386 120.209,59.366L120.209,59.607L119.945,59.607C119.74,59.607 119.608,59.661 119.551,59.77C119.492,59.88 119.463,60.263 119.463,60.919L119.463,62.362C119.463,63.022 119.43,63.466 119.364,63.696C119.298,63.925 119.178,64.132 119.004,64.317C118.831,64.502 118.598,64.649 118.309,64.756C118.019,64.864 117.678,64.918 117.286,64.918C116.881,64.918 116.527,64.87 116.223,64.774C115.919,64.677 115.69,64.558 115.537,64.417C115.385,64.277 115.273,64.105 115.203,63.9C115.136,63.696 115.102,63.349 115.102,62.859L115.109,62.128L115.109,60.954C115.109,60.231 115.087,59.825 115.045,59.738C115.003,59.651 114.866,59.607 114.638,59.607L114.363,59.607Z" style="fill:white;fill-rule:nonzero;"/>
        </g>
        <g transform="matrix(1,0,0,1,0,-19.607)">
            <path d="M122.511,63.278C122.764,63.29 123.008,63.296 123.247,63.296C123.731,63.296 124.109,63.285 124.381,63.258C124.572,63.237 124.768,63.2 124.972,63.146L125.202,62.24L125.442,62.24C125.374,62.728 125.324,63.183 125.287,63.606C125.056,63.645 124.74,63.665 124.339,63.665L122.507,63.634C122.26,63.634 121.876,63.644 121.357,63.662L121.357,63.466C121.563,63.376 121.685,63.279 121.723,63.177C121.759,63.074 121.779,62.668 121.779,61.957L121.779,59.841C121.779,59.073 121.759,58.644 121.723,58.556C121.686,58.466 121.58,58.422 121.409,58.422L120.99,58.422L120.99,58.182C121.603,58.201 122.009,58.21 122.21,58.21C122.478,58.21 122.842,58.201 123.301,58.182L123.301,58.422L122.823,58.422C122.687,58.422 122.602,58.461 122.565,58.54C122.53,58.618 122.511,58.942 122.511,59.514L122.511,61.965L122.523,63.05L122.511,63.278Z" style="fill:white;fill-rule:nonzero;"/>
        </g>
        <g transform="matrix(1,0,0,1,0,-19.61)">
            <path d="M125.915,63.427L126.159,63.427C126.398,63.427 126.542,63.369 126.591,63.253C126.639,63.138 126.661,62.583 126.661,61.591L126.661,60.283C126.661,59.256 126.642,58.689 126.601,58.583C126.559,58.478 126.436,58.425 126.228,58.425L125.915,58.425L125.915,58.185C126.345,58.205 126.77,58.214 127.189,58.214C127.538,58.214 127.857,58.205 128.141,58.185L128.141,58.425L127.843,58.425C127.658,58.425 127.542,58.446 127.496,58.49C127.449,58.534 127.421,58.646 127.414,58.822C127.4,59.097 127.394,59.587 127.394,60.292L127.394,61.621C127.394,62.621 127.417,63.173 127.461,63.274C127.504,63.375 127.646,63.427 127.886,63.427L128.141,63.427L128.141,63.666C127.822,63.647 127.477,63.638 127.101,63.638C126.662,63.638 126.269,63.647 125.915,63.666L125.915,63.427Z" style="fill:white;fill-rule:nonzero;"/>
        </g>
        <g transform="matrix(1,0,0,1,0,-19.6092)">
            <path d="M131.42,60.617L134.037,63.078L134.275,63.305C134.323,63.355 134.372,63.386 134.422,63.402C134.473,63.417 134.555,63.426 134.671,63.426L134.671,63.665C134.46,63.646 134.275,63.636 134.115,63.636C133.948,63.636 133.765,63.646 133.566,63.665L130.916,61.144C130.827,61.059 130.772,61.017 130.751,61.017C130.697,61.017 130.67,61.067 130.67,61.168L130.67,62.344C130.67,62.917 130.682,63.233 130.706,63.287C130.744,63.378 130.885,63.426 131.125,63.426L131.417,63.426L131.417,63.665C130.995,63.646 130.62,63.636 130.294,63.636C129.952,63.636 129.585,63.646 129.19,63.665L129.19,63.426L129.505,63.426C129.71,63.426 129.834,63.387 129.876,63.312C129.917,63.236 129.937,62.908 129.937,62.33L129.937,59.75C129.937,59.044 129.917,58.646 129.876,58.557C129.834,58.469 129.71,58.424 129.505,58.424L129.19,58.424L129.19,58.184C129.665,58.203 130.008,58.213 130.221,58.213C130.373,58.213 130.772,58.203 131.417,58.184L131.417,58.424L131.109,58.435C130.933,58.443 130.821,58.467 130.775,58.506C130.728,58.546 130.699,58.625 130.687,58.743C130.676,58.862 130.67,59.202 130.67,59.765L130.67,60.805L130.724,60.805C130.934,60.633 131.115,60.475 131.267,60.333C131.418,60.19 131.667,59.94 132.013,59.585L133.106,58.452L133.106,58.184C133.388,58.203 133.622,58.213 133.807,58.213C133.999,58.213 134.212,58.203 134.446,58.184L134.446,58.424L134.238,58.424C134.052,58.424 133.896,58.459 133.768,58.53C133.64,58.601 133.344,58.849 132.879,59.275L131.42,60.617Z" style="fill:white;fill-rule:nonzero;"/>
        </g>
        <g transform="matrix(1,0,0,1,0,-19.6088)">
            <path d="M135.641,60.608C135.641,61.185 135.739,61.688 135.937,62.116C136.136,62.544 136.401,62.864 136.733,63.077C137.065,63.29 137.446,63.398 137.873,63.398C138.269,63.398 138.614,63.307 138.912,63.124C139.208,62.944 139.441,62.673 139.612,62.313C139.781,61.952 139.868,61.515 139.868,61C139.868,60.457 139.773,59.995 139.584,59.611C139.396,59.226 139.138,58.937 138.812,58.743C138.485,58.548 138.097,58.452 137.65,58.452C137.24,58.452 136.888,58.537 136.592,58.708C136.295,58.88 136.062,59.131 135.894,59.462C135.724,59.792 135.641,60.174 135.641,60.608M134.851,60.923C134.851,60.08 135.122,59.401 135.667,58.886C136.21,58.371 136.935,58.114 137.841,58.114C138.727,58.114 139.423,58.353 139.928,58.83C140.431,59.309 140.684,59.943 140.684,60.734C140.684,61.587 140.391,62.301 139.806,62.874C139.222,63.447 138.485,63.735 137.594,63.735C137.038,63.735 136.558,63.622 136.156,63.398C135.753,63.172 135.434,62.842 135.202,62.409C134.967,61.976 134.851,61.48 134.851,60.923" style="fill:white;fill-rule:nonzero;"/>
        </g>
        <g transform="matrix(1,0,0,1,0,-19.6088)">
            <path d="M142.078,60.608C142.078,61.185 142.179,61.688 142.375,62.116C142.574,62.544 142.839,62.864 143.17,63.077C143.504,63.29 143.883,63.398 144.31,63.398C144.706,63.398 145.054,63.307 145.35,63.124C145.646,62.944 145.879,62.673 146.049,62.313C146.22,61.952 146.306,61.515 146.306,61C146.306,60.457 146.21,59.995 146.022,59.611C145.834,59.226 145.577,58.937 145.25,58.743C144.923,58.548 144.535,58.452 144.088,58.452C143.68,58.452 143.326,58.537 143.028,58.708C142.732,58.88 142.499,59.131 142.333,59.462C142.162,59.792 142.078,60.174 142.078,60.608M141.289,60.923C141.289,60.08 141.561,59.401 142.105,58.886C142.648,58.371 143.373,58.114 144.278,58.114C145.166,58.114 145.861,58.353 146.365,58.83C146.87,59.309 147.121,59.943 147.121,60.734C147.121,61.587 146.829,62.301 146.244,62.874C145.66,63.447 144.922,63.735 144.032,63.735C143.475,63.735 142.997,63.622 142.594,63.398C142.191,63.172 141.873,62.842 141.64,62.409C141.407,61.976 141.289,61.48 141.289,60.923" style="fill:white;fill-rule:nonzero;"/>
        </g>
        <g transform="matrix(1,0,0,1,0,-19.607)">
            <path d="M149.225,63.278C149.477,63.29 149.722,63.296 149.961,63.296C150.444,63.296 150.822,63.285 151.095,63.258C151.285,63.237 151.481,63.2 151.684,63.146L151.914,62.24L152.155,62.24C152.089,62.728 152.037,63.183 151.999,63.606C151.769,63.645 151.453,63.665 151.054,63.665L149.221,63.634C148.974,63.634 148.591,63.644 148.07,63.662L148.07,63.466C148.277,63.376 148.399,63.279 148.436,63.177C148.474,63.074 148.492,62.668 148.492,61.957L148.492,59.841C148.492,59.073 148.474,58.644 148.437,58.556C148.399,58.466 148.295,58.422 148.122,58.422L147.703,58.422L147.703,58.182C148.316,58.201 148.723,58.21 148.925,58.21C149.192,58.21 149.556,58.201 150.014,58.182L150.014,58.422L149.537,58.422C149.401,58.422 149.315,58.461 149.278,58.54C149.243,58.618 149.225,58.942 149.225,59.514L149.225,61.965L149.237,63.05L149.225,63.278Z" style="fill:white;fill-rule:nonzero;"/>
        </g>
        <g transform="matrix(1,0,0,1,0,11.1296)">
            <path d="M71.44,45.592L71.44,47.911C71.44,48.311 71.454,48.779 71.482,49.317C71.515,50.071 71.543,50.488 71.565,50.568C71.586,50.649 71.667,50.73 71.805,50.813C71.943,50.897 72.168,50.938 72.478,50.938L73.042,50.938L73.042,51.461C72.323,51.422 71.628,51.403 70.959,51.403C70.311,51.403 69.384,51.422 68.178,51.461L68.178,50.938L68.692,50.938C69.273,50.938 69.617,50.839 69.722,50.643C69.827,50.446 69.879,49.546 69.879,47.942L69.879,42.936C69.879,41.486 69.826,40.663 69.717,40.466C69.61,40.27 69.301,40.172 68.792,40.172L68.178,40.172L68.178,39.649C69.091,39.687 69.94,39.707 70.726,39.707C71.518,39.707 72.29,39.687 73.042,39.649L73.042,40.172L72.685,40.172C72.17,40.172 71.852,40.213 71.731,40.297C71.609,40.38 71.534,40.515 71.506,40.704C71.462,41.009 71.44,41.749 71.44,42.924L71.44,44.821C72.425,44.859 73.678,44.878 75.2,44.878C76.49,44.878 77.538,44.859 78.346,44.821L78.346,43.198C78.346,42.25 78.313,41.455 78.247,40.812C78.225,40.585 78.15,40.421 78.023,40.321C77.895,40.221 77.635,40.172 77.242,40.172L76.645,40.172L76.645,39.649C77.491,39.687 78.294,39.707 79.052,39.707C79.871,39.707 80.723,39.687 81.608,39.649L81.608,40.172L80.978,40.172C80.551,40.172 80.279,40.218 80.16,40.313C80.041,40.407 79.969,40.58 79.944,40.831C79.919,41.083 79.907,41.876 79.907,43.209L79.907,47.8C79.907,49.499 79.955,50.446 80.052,50.643C80.149,50.839 80.452,50.938 80.961,50.938L81.608,50.938L81.608,51.461C80.845,51.422 80.056,51.403 79.243,51.403C78.313,51.403 77.447,51.422 76.645,51.461L76.645,50.938L77.217,50.938C77.638,50.938 77.909,50.889 78.031,50.792C78.152,50.696 78.227,50.514 78.255,50.247C78.316,49.677 78.346,48.845 78.346,47.753L78.346,45.592C77.566,45.553 76.57,45.533 75.358,45.533C73.631,45.533 72.325,45.553 71.44,45.592" style="fill:white;fill-rule:nonzero;"/>
        </g>
        <g transform="matrix(1,0,0,1,0,15.0804)">
            <path d="M87.409,43.061C85.87,43.392 84.894,43.703 84.479,43.993C84.064,44.282 83.856,44.731 83.856,45.338C83.856,45.747 83.975,46.074 84.213,46.32C84.451,46.565 84.758,46.688 85.135,46.688C85.55,46.688 85.947,46.572 86.326,46.34C86.705,46.108 87.066,45.763 87.409,45.305L87.392,43.466L87.409,43.061ZM83.034,41.741L83.043,41.184L83.034,40.612L83.939,40.097C84.349,39.865 84.707,39.705 85.014,39.616C85.321,39.527 85.649,39.483 85.998,39.483C86.762,39.483 87.377,39.655 87.845,39.997C88.312,40.339 88.593,40.777 88.687,41.307C88.754,41.705 88.795,42.692 88.812,44.267C88.823,45.754 88.856,46.575 88.911,46.73C88.967,46.884 89.105,46.961 89.326,46.961L89.974,46.961L89.974,47.51C89.343,47.471 88.903,47.452 88.654,47.452C88.344,47.452 87.929,47.471 87.409,47.51L87.417,46.772C87.417,46.534 87.414,46.293 87.409,46.05L85.691,47.361C85.536,47.477 85.384,47.558 85.234,47.605C85.085,47.652 84.877,47.676 84.612,47.676C83.898,47.676 83.353,47.5 82.976,47.15C82.6,46.798 82.412,46.328 82.412,45.737C82.412,45.178 82.546,44.691 82.814,44.274C83.083,43.857 83.465,43.548 83.96,43.35C84.455,43.151 85.605,42.891 87.409,42.571C87.398,41.868 87.243,41.342 86.944,40.994C86.568,40.556 86.031,40.338 85.334,40.338C85.068,40.338 84.819,40.371 84.587,40.435C84.354,40.5 84.138,40.598 83.939,40.728C83.779,41.124 83.632,41.502 83.499,41.866L83.034,41.741Z" style="fill:white;fill-rule:nonzero;"/>
        </g>
        <g transform="matrix(1,0,0,1,0,15.0804)">
            <path d="M95.892,43.061C94.353,43.392 93.377,43.703 92.962,43.993C92.547,44.282 92.339,44.731 92.339,45.338C92.339,45.747 92.458,46.074 92.696,46.32C92.934,46.565 93.241,46.688 93.618,46.688C94.033,46.688 94.43,46.572 94.809,46.34C95.188,46.108 95.549,45.763 95.892,45.305L95.875,43.466L95.892,43.061ZM91.517,41.741L91.526,41.184L91.517,40.612L92.422,40.097C92.832,39.865 93.19,39.705 93.497,39.616C93.804,39.527 94.132,39.483 94.481,39.483C95.245,39.483 95.86,39.655 96.328,39.997C96.795,40.339 97.076,40.777 97.17,41.307C97.237,41.705 97.278,42.692 97.295,44.267C97.306,45.754 97.339,46.575 97.394,46.73C97.45,46.884 97.588,46.961 97.809,46.961L98.457,46.961L98.457,47.51C97.826,47.471 97.386,47.452 97.137,47.452C96.827,47.452 96.412,47.471 95.892,47.51L95.9,46.772C95.9,46.534 95.897,46.293 95.892,46.05L94.174,47.361C94.019,47.477 93.867,47.558 93.717,47.605C93.568,47.652 93.36,47.676 93.095,47.676C92.381,47.676 91.836,47.5 91.459,47.15C91.083,46.798 90.895,46.328 90.895,45.737C90.895,45.178 91.029,44.691 91.297,44.274C91.566,43.857 91.948,43.548 92.443,43.35C92.938,43.151 94.088,42.891 95.892,42.571C95.881,41.868 95.726,41.342 95.427,40.994C95.051,40.556 94.514,40.338 93.817,40.338C93.551,40.338 93.302,40.371 93.07,40.435C92.837,40.5 92.621,40.598 92.422,40.728C92.262,41.124 92.115,41.502 91.982,41.866L91.517,41.741Z" style="fill:white;fill-rule:nonzero;"/>
        </g>
        <g transform="matrix(1,0,0,1,0,19.4046)">
            <path d="M101.541,41.401C101.895,41.799 102.248,42.082 102.602,42.248C102.955,42.414 103.336,42.497 103.745,42.497C104.618,42.497 105.287,42.168 105.75,41.508C106.215,40.85 106.447,40.067 106.447,39.16C106.447,38.551 106.34,38.03 106.128,37.595C105.915,37.161 105.604,36.82 105.195,36.574C104.787,36.328 104.348,36.205 103.878,36.205C103.546,36.205 103.222,36.271 102.904,36.404C102.586,36.537 102.309,36.72 102.071,36.956C101.834,37.191 101.682,37.409 101.616,37.608C101.566,37.756 101.541,38.153 101.541,38.795L101.541,41.401ZM101.541,36.836L102.702,35.806C102.995,35.547 103.243,35.383 103.448,35.317C103.774,35.212 104.155,35.159 104.592,35.159C105.575,35.159 106.371,35.464 106.979,36.072C107.587,36.68 107.891,37.466 107.891,38.429C107.891,38.911 107.822,39.385 107.684,39.853C107.545,40.321 107.377,40.703 107.178,40.999C106.979,41.295 106.755,41.542 106.507,41.741C106.424,41.807 106.086,42.026 105.495,42.397L105.164,42.637C104.744,42.931 104.405,43.124 104.148,43.214C103.891,43.306 103.597,43.352 103.265,43.352C103.005,43.352 102.732,43.314 102.445,43.24C102.157,43.165 101.856,43.055 101.541,42.912L101.541,44.083C101.541,45.283 101.558,46.13 101.591,46.622C101.607,46.838 101.677,46.995 101.798,47.091C101.92,47.188 102.177,47.237 102.57,47.237L103.019,47.237L103.019,47.702C101.971,47.663 101.203,47.643 100.715,47.643C100.177,47.643 99.492,47.663 98.661,47.702L98.661,47.237L99.267,47.237C99.693,47.237 99.944,47.145 100.022,46.963C100.1,46.78 100.138,45.806 100.138,44.041L100.138,38.944C100.138,38.058 100.116,37.376 100.072,36.893C100.05,36.661 99.996,36.507 99.91,36.433C99.824,36.358 99.624,36.321 99.308,36.321L98.661,36.321L98.661,35.806C99.432,35.723 100.189,35.565 100.933,35.333L101.441,35.133C101.53,35.133 101.574,35.212 101.574,35.366L101.549,36.247L101.541,36.836Z" style="fill:white;fill-rule:nonzero;"/>
        </g>
        <g transform="matrix(1,0,0,1,0,15.0808)">
            <path d="M109.715,44.969L109.715,45.511C109.715,45.945 109.754,46.214 109.831,46.32C109.975,46.497 110.256,46.669 110.674,46.836C111.091,47.003 111.522,47.086 111.965,47.086C112.535,47.086 113,46.933 113.359,46.625C113.718,46.318 113.898,45.95 113.898,45.524C113.898,45.186 113.793,44.914 113.584,44.709C113.373,44.504 112.972,44.341 112.38,44.219C111.278,43.997 110.55,43.804 110.196,43.637C109.842,43.471 109.577,43.249 109.4,42.973C109.222,42.696 109.134,42.361 109.134,41.967C109.134,41.231 109.401,40.632 109.936,40.172C110.471,39.712 111.229,39.483 112.211,39.483C112.986,39.483 113.759,39.638 114.529,39.948C114.482,40.323 114.443,40.954 114.414,41.84L113.916,41.84C113.904,41.353 113.851,41.032 113.757,40.877C113.631,40.672 113.398,40.487 113.062,40.321C112.726,40.155 112.367,40.073 111.986,40.073C111.483,40.073 111.082,40.201 110.78,40.458C110.48,40.716 110.329,41.039 110.329,41.427C110.329,41.798 110.448,42.077 110.686,42.266C110.924,42.46 111.583,42.665 112.662,42.881C113.459,43.042 113.984,43.192 114.238,43.329C114.494,43.468 114.699,43.678 114.853,43.96C115.007,44.241 115.086,44.566 115.086,44.93C115.086,45.677 114.765,46.321 114.127,46.863C113.488,47.405 112.634,47.676 111.566,47.676C110.885,47.676 110.122,47.569 109.275,47.357C109.126,47.319 109.051,47.26 109.051,47.183L109.076,47.066C109.098,46.983 109.117,46.836 109.134,46.625C109.184,46.087 109.209,45.668 109.209,45.368L109.2,44.969L109.715,44.969Z" style="fill:white;fill-rule:nonzero;"/>
        </g>
        <g transform="matrix(1,0,0,1,0,15.0804)">
            <path d="M121.22,43.061C119.682,43.392 118.705,43.703 118.289,43.993C117.875,44.282 117.667,44.731 117.667,45.338C117.667,45.747 117.786,46.074 118.024,46.32C118.262,46.565 118.57,46.688 118.946,46.688C119.361,46.688 119.758,46.572 120.137,46.34C120.516,46.108 120.877,45.763 121.22,45.305L121.203,43.466L121.22,43.061ZM116.846,41.741L116.854,41.184L116.846,40.612L117.75,40.097C118.159,39.865 118.518,39.705 118.825,39.616C119.132,39.527 119.46,39.483 119.809,39.483C120.573,39.483 121.188,39.655 121.656,39.997C122.123,40.339 122.405,40.777 122.498,41.307C122.565,41.705 122.606,42.692 122.623,44.267C122.634,45.754 122.667,46.575 122.723,46.73C122.778,46.884 122.916,46.961 123.137,46.961L123.785,46.961L123.785,47.51C123.155,47.471 122.714,47.452 122.465,47.452C122.156,47.452 121.741,47.471 121.22,47.51L121.229,46.772C121.229,46.534 121.226,46.293 121.22,46.05L119.502,47.361C119.347,47.477 119.195,47.558 119.045,47.605C118.896,47.652 118.688,47.676 118.422,47.676C117.709,47.676 117.163,47.5 116.787,47.15C116.411,46.798 116.223,46.328 116.223,45.737C116.223,45.178 116.357,44.691 116.625,44.274C116.894,43.857 117.276,43.548 117.771,43.35C118.266,43.151 119.416,42.891 121.22,42.571C121.209,41.868 121.054,41.342 120.755,40.994C120.379,40.556 119.842,40.338 119.145,40.338C118.879,40.338 118.63,40.371 118.398,40.435C118.165,40.5 117.949,40.598 117.75,40.728C117.59,41.124 117.444,41.502 117.311,41.866L116.846,41.741Z" style="fill:white;fill-rule:nonzero;"/>
        </g>
        <g transform="matrix(1,0,0,1,0,10.5146)">
            <path d="M127.658,39.749C127.563,41.371 127.516,42.837 127.516,44.148L127.516,48.415C127.516,50.108 127.553,51.068 127.625,51.295C127.663,51.412 127.845,51.486 128.172,51.52L128.878,51.594L128.878,52.076C128.273,52.037 127.696,52.018 127.147,52.018C126.538,52.018 125.739,52.037 124.752,52.076L124.752,51.594L125.467,51.536C125.781,51.509 125.962,51.428 126.006,51.295C126.078,51.08 126.113,50.098 126.113,48.349L126.113,44.107L126.105,42.514L126.08,41.426C126.08,41.155 126.05,40.989 125.989,40.928C125.9,40.839 125.715,40.795 125.433,40.795L124.752,40.795L124.752,40.297C125.907,40.192 126.828,39.976 127.516,39.649L127.658,39.749Z" style="fill:white;fill-rule:nonzero;"/>
        </g>
        <g transform="matrix(1,0,0,1,0,15.0548)">
            <path d="M135.772,47.536L135.864,46.042L135.375,46.573C134.993,46.987 134.605,47.279 134.21,47.448C133.815,47.617 133.327,47.702 132.747,47.702C132.25,47.702 131.822,47.597 131.462,47.386C131.103,47.176 130.842,46.903 130.679,46.568C130.516,46.233 130.434,45.704 130.434,44.979C130.434,44.602 130.443,44.165 130.46,43.667L130.485,42.331C130.485,41.395 130.459,40.876 130.406,40.77C130.353,40.665 130.177,40.612 129.878,40.612L129.139,40.612L129.139,40.156C129.894,40.09 130.591,39.951 131.229,39.741L131.92,39.483C132.014,39.483 132.061,39.553 132.061,39.691L132.003,40.538C131.926,41.711 131.887,42.802 131.887,43.808C131.887,44.815 131.928,45.459 132.011,45.738C132.094,46.017 132.268,46.25 132.534,46.435C132.798,46.621 133.122,46.714 133.502,46.714C134.016,46.714 134.487,46.548 134.915,46.216C135.343,45.884 135.624,45.549 135.755,45.212C135.828,45.017 135.864,44.433 135.864,43.46C135.864,41.822 135.833,40.931 135.772,40.787C135.716,40.671 135.467,40.612 135.025,40.612L134.37,40.612L134.37,40.156C134.939,40.09 135.423,40.013 135.822,39.924C136.22,39.835 136.641,39.702 137.084,39.525C137.139,39.498 137.189,39.483 137.233,39.483C137.327,39.483 137.374,39.536 137.374,39.641L137.34,40.413C137.258,42.306 137.216,43.972 137.216,45.411C137.216,46.219 137.258,46.681 137.34,46.797C137.462,46.969 137.725,47.054 138.129,47.054L138.611,47.054L138.611,47.536C137.919,47.497 137.333,47.477 136.851,47.477C136.492,47.477 136.131,47.497 135.772,47.536" style="fill:white;fill-rule:nonzero;"/>
        </g>
        <g transform="matrix(1,0,0,1,0,10.6476)">
            <path d="M146.473,47.784L146.473,48.838C146.473,50.232 146.519,51.018 146.61,51.195C146.702,51.373 146.98,51.461 147.445,51.461L147.951,51.461L147.951,51.943L147.501,51.926C146.702,51.898 146.176,51.885 145.921,51.885L143.708,51.943L143.708,51.461L144.199,51.461C144.624,51.461 144.876,51.381 144.954,51.22C145.032,51.059 145.07,50.268 145.07,48.848L145.07,43.89C145.07,42.055 145.029,41.025 144.946,40.804C144.896,40.671 144.68,40.604 144.298,40.604L143.593,40.604L143.593,40.122C144.059,40.122 144.725,40.008 145.59,39.779L146.431,39.516C146.52,39.516 146.564,39.572 146.564,39.682L146.523,40.513C146.512,40.724 146.495,41.882 146.473,43.987L146.473,47.319L146.58,47.377C147.083,47.001 147.512,46.664 147.866,46.365C148.047,46.21 148.462,45.822 149.109,45.203L150.302,44.082L151.976,44.082L151.976,44.563L151.678,44.563C151.485,44.563 151.236,44.654 150.932,44.837C150.329,45.196 149.334,45.951 147.947,47.1C148.986,48.18 149.624,48.828 149.863,49.044C150.968,50.063 151.634,50.664 151.862,50.847C151.999,50.961 152.119,51.037 152.218,51.078C152.317,51.118 152.458,51.149 152.64,51.171L152.64,51.545C152.16,51.76 151.632,51.937 151.057,52.076C150.731,51.81 149.96,51.068 148.744,49.851C147.855,48.96 147.133,48.271 146.58,47.784L146.473,47.784Z" style="fill:white;fill-rule:nonzero;"/>
        </g>
        <g transform="matrix(1,0,0,1,0,15.0804)">
            <path d="M154.676,42.939C154.676,44.081 154.909,45.057 155.377,45.869C155.845,46.68 156.519,47.086 157.399,47.086C158.069,47.086 158.61,46.832 159.022,46.322C159.434,45.812 159.64,45.04 159.64,44.003C159.64,43.167 159.518,42.442 159.275,41.83C159.031,41.217 158.71,40.772 158.312,40.492C157.913,40.212 157.468,40.073 156.975,40.073C156.538,40.073 156.144,40.183 155.792,40.405C155.441,40.626 155.182,40.922 155.016,41.293C154.789,41.798 154.676,42.346 154.676,42.939M153.115,43.526C153.115,42.762 153.292,42.072 153.647,41.455C154.001,40.837 154.497,40.354 155.137,40.006C155.776,39.657 156.502,39.483 157.316,39.483C158.494,39.483 159.438,39.832 160.147,40.529C160.855,41.226 161.209,42.156 161.209,43.318C161.209,44.69 160.746,45.781 159.822,46.588C158.998,47.313 158.01,47.676 156.86,47.676C155.752,47.676 154.852,47.303 154.157,46.559C153.463,45.815 153.115,44.803 153.115,43.526" style="fill:white;fill-rule:nonzero;"/>
        </g>
        <g transform="matrix(1,0,0,1,0,10.5146)">
            <path d="M164.736,39.749C164.641,41.371 164.594,42.837 164.594,44.148L164.594,48.415C164.594,50.108 164.631,51.068 164.703,51.295C164.741,51.412 164.923,51.486 165.25,51.52L165.956,51.594L165.956,52.076C165.351,52.037 164.774,52.018 164.225,52.018C163.616,52.018 162.817,52.037 161.83,52.076L161.83,51.594L162.545,51.536C162.859,51.509 163.04,51.428 163.084,51.295C163.156,51.08 163.191,50.098 163.191,48.349L163.191,44.107L163.183,42.514L163.158,41.426C163.158,41.155 163.128,40.989 163.067,40.928C162.978,40.839 162.793,40.795 162.511,40.795L161.83,40.795L161.83,40.297C162.985,40.192 163.906,39.976 164.594,39.649L164.736,39.749Z" style="fill:white;fill-rule:nonzero;"/>
        </g>
        <g transform="matrix(1,0,0,1,0,10.5146)">
            <path d="M169.837,39.749C169.742,41.371 169.695,42.837 169.695,44.148L169.695,48.415C169.695,50.108 169.732,51.068 169.804,51.295C169.842,51.412 170.024,51.486 170.351,51.52L171.057,51.594L171.057,52.076C170.452,52.037 169.875,52.018 169.326,52.018C168.717,52.018 167.918,52.037 166.931,52.076L166.931,51.594L167.646,51.536C167.96,51.509 168.141,51.428 168.185,51.295C168.257,51.08 168.292,50.098 168.292,48.349L168.292,44.107L168.284,42.514L168.259,41.426C168.259,41.155 168.229,40.989 168.168,40.928C168.079,40.839 167.894,40.795 167.612,40.795L166.931,40.795L166.931,40.297C168.086,40.192 169.007,39.976 169.695,39.649L169.837,39.749Z" style="fill:white;fill-rule:nonzero;"/>
        </g>
        <g transform="matrix(1,0,0,1,0,15.0806)">
            <path d="M173.224,42.87C174.081,42.909 175.028,42.929 176.063,42.929C176.478,42.929 176.879,42.909 177.266,42.87L177.266,42.405C177.266,41.918 177.169,41.456 176.976,41.018C176.854,40.748 176.641,40.522 176.336,40.343C176.033,40.163 175.681,40.073 175.283,40.073C174.662,40.073 174.167,40.3 173.797,40.753C173.426,41.207 173.235,41.913 173.224,42.87M173.207,43.493C173.235,44.583 173.514,45.41 174.044,45.974C174.575,46.539 175.271,46.821 176.133,46.821C176.52,46.821 176.904,46.758 177.285,46.63C177.666,46.503 178.044,46.312 178.42,46.058L178.561,46.183L178.295,46.88C177.836,47.145 177.364,47.345 176.876,47.477C176.389,47.61 175.889,47.677 175.373,47.677C174.25,47.677 173.344,47.32 172.656,46.609C171.966,45.898 171.621,44.934 171.621,43.717C171.621,42.787 171.816,41.981 172.203,41.302C172.457,40.852 172.928,40.438 173.614,40.056C174.3,39.675 174.967,39.483 175.615,39.483C176.594,39.483 177.37,39.771 177.943,40.347C178.516,40.922 178.802,41.727 178.802,42.763L178.786,43.252C178.421,43.341 178.073,43.398 177.742,43.427C177.15,43.471 176.329,43.493 175.28,43.493L173.207,43.493Z" style="fill:white;fill-rule:nonzero;"/>
        </g>
        <g transform="matrix(1,0,0,1,0,10.6812)">
            <path d="M186.321,45.818C185.94,45.408 185.544,45.1 185.133,44.895C184.72,44.691 184.291,44.588 183.843,44.588C183.12,44.588 182.537,44.852 182.095,45.381C181.653,45.911 181.432,46.685 181.432,47.705C181.432,48.741 181.685,49.554 182.19,50.144C182.696,50.734 183.31,51.029 184.034,51.029C184.476,51.029 184.883,50.906 185.253,50.66C185.623,50.413 185.893,50.093 186.064,49.7C186.236,49.306 186.321,48.688 186.321,47.846L186.321,45.818ZM186.321,44.388L186.321,41.378C186.321,41.028 186.283,40.809 186.206,40.72C186.128,40.631 185.951,40.587 185.675,40.587L184.96,40.587L184.96,40.089C185.948,40.024 186.869,39.821 187.724,39.483L187.874,39.583C187.835,40.148 187.801,40.829 187.774,41.626L187.741,43.836L187.724,44.55L187.724,49.509C187.724,50.434 187.752,50.949 187.807,51.054C187.89,51.204 188.12,51.303 188.497,51.353L189.086,51.427L189.086,51.91C188.403,51.859 187.8,51.835 187.279,51.835C187.184,51.835 186.835,51.859 186.23,51.91C186.269,51.535 186.3,51.004 186.321,50.315C185.851,50.678 185.252,51.188 184.522,51.843C184.052,51.998 183.638,52.076 183.279,52.076C182.345,52.076 181.563,51.724 180.933,51.021C180.302,50.318 179.988,49.378 179.988,48.199C179.988,47.463 180.109,46.835 180.352,46.314C180.595,45.795 180.886,45.417 181.223,45.181C181.56,44.946 182.086,44.649 182.799,44.289C183.345,44.018 183.851,43.882 184.315,43.882C184.631,43.882 184.955,43.923 185.29,44.007C185.624,44.089 185.967,44.217 186.321,44.388" style="fill:white;fill-rule:nonzero;"/>
        </g>
        <g transform="matrix(1,0,0,1,0,11.4696)">
            <path d="M196.432,39.649L194.29,42.496L193.494,42.496L191.361,39.649L191.874,39.649L193.917,41.45L195.91,39.649L196.432,39.649ZM190.081,51.121L189.999,50.726C190.536,50.14 191.263,49.284 192.182,48.157C193.427,46.622 194.539,45.197 195.519,43.883C194.135,43.888 193.092,43.913 192.39,43.957C191.908,43.984 191.63,44.033 191.555,44.103C191.481,44.172 191.412,44.405 191.352,44.804L191.236,45.51L190.754,45.51C190.815,44.977 190.845,44.507 190.845,44.102L190.829,43.326L190.896,43.26C192.589,43.299 193.872,43.318 194.747,43.318C195.671,43.318 196.581,43.299 197.478,43.26L197.478,43.714C197.19,44.029 196.908,44.357 196.631,44.7L195.328,46.323C194.781,47.003 193.712,48.38 192.124,50.457L193.178,50.473C194.329,50.473 195.326,50.435 196.166,50.357C196.493,50.324 196.703,50.258 196.797,50.158C196.891,50.059 196.988,49.718 197.087,49.137L197.179,48.639L197.669,48.639C197.536,49.666 197.472,50.463 197.478,51.029C197.096,51.073 196.673,51.096 196.208,51.096L193.195,51.063C191.96,51.063 190.923,51.082 190.081,51.121" style="fill:white;fill-rule:nonzero;"/>
        </g>
    </g>
</svg>
